<?xml version="1.0" encoding="UTF-8"?>
<svg width="13px" height="12px" viewBox="0 0 13 12" version="1.1" xmlns="http://www.w3.org/2000/svg" xmlns:xlink="http://www.w3.org/1999/xlink">
    <!-- Generator: Sketch 47.1 (45422) - http://www.bohemiancoding.com/sketch -->
    <title>add</title>
    <desc>Created with Sketch.</desc>
    <defs></defs>
    <g id="Violett-Web-(Light)" stroke="none" stroke-width="1" fill="none" fill-rule="evenodd" fill-opacity="0.75">
        <g id="按任务验收" transform="translate(-1338.000000, -45.000000)" fill="#FAFAFA">
            <g id="top-bar" transform="translate(-2.062334, -1.000000)">
                <g id="add-" transform="translate(1327.304377, 32.000000)">
                    <path d="M18.5611399,19.000036 L14.4363395,19.000036 C13.8667888,19.000036 13.4047929,19.447728 13.4047929,19.999846 C13.4047929,20.552342 13.8667888,21.000048 14.4363395,21.000048 L18.5611399,21.000048 L18.5611399,25.000072 C18.5611399,25.552176 19.0225914,25.999882 19.5921421,25.999882 C20.1616763,25.999882 20.6234082,25.552176 20.6234082,25.000072 L20.6234082,21.000048 L24.7476641,21.000048 C25.3174788,21.000048 25.7791942,20.552342 25.7791942,19.999846 C25.7791942,19.447728 25.3174788,19.000036 24.7476641,19.000036 L20.6234082,19.000036 L20.6234082,15.000012 C20.6234082,14.447894 20.1616763,14.000202 19.5921421,14.000202 C19.0225914,14.000202 18.5611399,14.447894 18.5611399,15.000012 L18.5611399,19.000036 Z" id="add"></path>
                </g>
            </g>
        </g>
    </g>
</svg>