<?xml version="1.0" encoding="UTF-8"?>
<svg width="28px" height="47px" viewBox="0 0 28 47" version="1.1" xmlns="http://www.w3.org/2000/svg" xmlns:xlink="http://www.w3.org/1999/xlink">
    <!-- Generator: Sketch 47.1 (45422) - http://www.bohemiancoding.com/sketch -->
    <title>Arrow-Icon</title>
    <desc>Created with Sketch.</desc>
    <defs></defs>
    <g id="Violett-Web-(Light)" stroke="none" stroke-width="1" fill="none" fill-rule="evenodd">
        <g id="我的重心-项目经理" transform="translate(-816.000000, -225.000000)" fill-rule="nonzero" fill="#F44236">
            <g id="Sales-Down-with-Progress-Bar" transform="translate(784.718170, 111.000000)">
                <g id="Sales-&amp;-Percentage" transform="translate(30.935013, 114.000000)">
                    <g id="Arrow-Icon" transform="translate(13.911531, 23.500000) rotate(180.000000) translate(-13.911531, -23.500000) ">
                        <path d="M13.2077104,2.43397162 L13.2077104,45.7666061 C13.2077104,46.159697 13.4385388,46.4787273 13.7229523,46.4787273 C14.0083963,46.4787273 14.2381942,46.159697 14.2381942,45.7666061 L14.2381942,2.42856628 L26.275275,19.0706061 C26.3762624,19.2087576 26.5081643,19.2785455 26.6400663,19.2785455 C26.7719682,19.2785455 26.9038701,19.2087576 27.0048575,19.0691818 C27.2058019,18.7914545 27.2058019,18.3399697 27.0048575,18.0622424 L14.0898045,0.207939394 C13.992939,0.0754848485 13.8620676,0 13.7250133,0 C13.7246697,0 13.7243262,4.74349847e-07 13.7239827,1.42275788e-06 C13.7236395,4.65752402e-07 13.7232959,0 13.7229523,0 C13.5667752,0 13.4267558,0.0961979951 13.3322415,0.248032533 L0.441047051,18.0636667 C0.240102717,18.3413939 0.240102717,18.7928788 0.441047051,19.0706061 C0.641991385,19.3483333 0.968654738,19.3483333 1.16959907,19.0706061 L13.2077104,2.43397162 Z" id="Combined-Shape"></path>
                    </g>
                </g>
            </g>
        </g>
    </g>
</svg>