<?xml version="1.0" encoding="UTF-8"?>
<svg width="13px" height="6px" viewBox="0 0 13 6" version="1.1" xmlns="http://www.w3.org/2000/svg" xmlns:xlink="http://www.w3.org/1999/xlink">
    <!-- Generator: Sketch 47.1 (45422) - http://www.bohemiancoding.com/sketch -->
    <title>arrow</title>
    <desc>Created with Sketch.</desc>
    <defs></defs>
    <g id="Violett-Web-(Light)" stroke="none" stroke-width="1" fill="none" fill-rule="evenodd">
        <g id="按任务验收" transform="translate(-1480.000000, -48.000000)" fill="#888888">
            <g id="top-bar" transform="translate(-2.062334, -1.000000)">
                <path d="M1488.66933,52.6856939 L1492.4892,49.29168 C1492.91119,48.91757 1493.59544,48.91757 1494.01742,49.29168 C1494.43942,49.66734 1494.43942,50.27531 1494.01742,50.64981 L1489.43394,54.7209227 C1489.43372,54.7211152 1489.4335,54.7213076 1489.43329,54.7215 C1489.22229,54.90913 1488.94573,55.002945 1488.6692,55.002945 C1488.39268,55.002945 1488.11619,54.90913 1487.90533,54.7215 C1487.90509,54.721286 1487.90485,54.7210718 1487.90461,54.7208576 L1483.32146,50.64981 C1482.89919,50.27531 1482.89919,49.66734 1483.32146,49.29168 C1483.74318,48.91757 1484.42741,48.91757 1484.84968,49.29168 L1488.66933,52.6856939 Z" id="arrow"></path>
            </g>
        </g>
    </g>
</svg>