<?xml version="1.0" encoding="UTF-8"?>
<svg width="22px" height="18px" viewBox="0 0 22 18" version="1.1" xmlns="http://www.w3.org/2000/svg" xmlns:xlink="http://www.w3.org/1999/xlink">
    <!-- Generator: Sketch 47.1 (45422) - http://www.bohemiancoding.com/sketch -->
    <title>Cloud-Icon</title>
    <desc>Created with Sketch.</desc>
    <defs></defs>
    <g id="Violett-Web-(Light)" stroke="none" stroke-width="1" fill="none" fill-rule="evenodd">
        <g id="我的重心-项目经理" transform="translate(-124.000000, -300.000000)" fill-rule="nonzero" fill="#6F737A">
            <g id="Menu-Icons" transform="translate(124.771220, 116.000000)">
                <g id="Cloud-Icon" transform="translate(0.000000, 184.000000)">
                    <path d="M15.7227204,3.59461952 C15.5691407,3.59461952 15.4146268,3.60157716 15.260757,3.61546058 C14.3642254,1.44282632 12.1667411,0 9.71282051,0 C6.60024293,0 4.04530098,2.26295612 3.77059503,5.2025975 C1.66562479,5.34965974 0,7.03976459 0,9.0961659 C0,11.1202531 1.61371197,12.7898578 3.67143813,12.9816012 C3.70575685,12.9933827 3.74288228,13 3.78128978,13 L5.0189516,13 C5.19705014,13 5.34119164,12.861719 5.34119164,12.6907854 C5.34119164,12.5198825 5.19705014,12.3815708 5.0189516,12.3815708 L4.06827657,12.3815708 C2.18046727,12.3815708 0.644479484,10.9076681 0.644479484,9.0961659 C0.644479484,7.28466368 2.18046727,5.81076037 4.07298121,5.81076037 C4.24576602,5.81076037 4.38800647,5.67971539 4.39493082,5.51425435 C4.51103383,2.76873817 6.84694976,0.618429134 9.71282054,0.618429134 C11.9798095,0.618429134 14.0010616,1.99842296 14.7424672,4.05241146 C14.793449,4.19313533 14.943867,4.27829309 15.0939667,4.25714296 C15.3016492,4.22785979 15.513135,4.21304865 15.7227204,4.21304865 C18.0696602,4.21304869 19.9788627,6.04511416 19.9788627,8.2971856 C19.9788627,10.549257 18.0696602,12.3815708 15.7227204,12.3815708 L15.7136006,12.4069573 C15.6742549,12.3906299 15.6311402,12.3815708 15.5858363,12.3815708 L14.1760375,12.3815708 C13.9979,12.3815708 13.8537978,12.5198825 13.8537978,12.6907854 C13.8537978,12.861719 13.9979,13 14.1760375,13 L15.5858363,13 C15.6311402,13 15.6742549,12.9909398 15.7136006,12.9746442 L15.7227204,13 C18.4249261,13 20.6233422,10.890476 20.6233422,8.2971856 C20.6233422,5.70417414 18.4249261,3.59461952 15.7227204,3.59461952 Z" id="Shape"></path>
                    <path d="M14.1047783,10.3316547 C14.189623,10.3316547 14.2744348,10.3001013 14.3391861,10.2370291 C14.468724,10.1108822 14.468724,9.90651595 14.3391861,9.78033829 L12.7053956,8.18920324 L12.7053956,8.18671649 L12.7028104,8.18671649 L12.608251,8.0946097 C12.4787473,7.96846343 12.2689406,7.96846343 12.1394355,8.0946097 L12.0448812,8.18671649 L12.0422909,8.18671649 L12.0422909,8.18923589 L10.4087989,9.78033829 C10.2792951,9.90651598 10.2792951,10.1108822 10.4087989,10.2370291 C10.5383369,10.3631747 10.7481435,10.3631747 10.8776473,10.2370291 L12.0422909,9.10258427 L12.0422909,15 L12.7053956,15 L12.7053956,9.10252019 L13.8703718,10.2370291 C13.9351231,10.3001013 14.0199387,10.3316547 14.1047783,10.3316547 Z" id="Shape"></path>
                    <path d="M8.71453575,15.7629503 L7.54956025,16.8974619 L7.54956025,11 L6.88645564,11 L6.88645564,16.8973979 L5.72181215,15.7629503 C5.59230776,15.6368043 5.38250172,15.6368043 5.25296384,15.7629503 C5.12345944,15.8890975 5.12345944,16.0934642 5.25296384,16.2196422 L6.88645567,17.8107484 L6.88645567,17.8135906 L6.8893735,17.8135906 L6.98360089,17.9053742 C7.04835273,17.9684478 7.13316387,18 7.21800794,18 C7.30285261,18 7.38766316,17.9684478 7.45241565,17.9053742 L7.54667594,17.8135906 L7.54956025,17.8135906 L7.54956025,17.8107804 L9.18335054,16.2196422 C9.31288846,16.0934642 9.31288846,15.8890975 9.18335054,15.7629503 C9.05384614,15.6368043 8.84404014,15.6368043 8.71453575,15.7629503 Z" id="Shape"></path>
                </g>
            </g>
        </g>
    </g>
</svg>