<?xml version="1.0" encoding="UTF-8"?>
<svg width="34px" height="30px" viewBox="0 0 34 30" version="1.1" xmlns="http://www.w3.org/2000/svg" xmlns:xlink="http://www.w3.org/1999/xlink">
    <!-- Generator: Sketch 47.1 (45422) - http://www.bohemiancoding.com/sketch -->
    <title>我们的</title>
    <desc>Created with Sketch.</desc>
    <defs></defs>
    <g id="Symbols" stroke="none" stroke-width="1" fill="none" fill-rule="evenodd">
        <g id="Overrides/Tab-Bar/Icons/Active/1" transform="translate(-8.000000, -3.000000)" fill="#359FFF">
            <g id="我们的" transform="translate(7.000000, 0.000000)">
                <path d="M2.24215792,19.5015238 C2.24215792,26.3092031 7.93248367,31.8270535 14.9519231,31.8270535 C21.9729338,31.8270535 27.6632595,26.3092031 27.6632595,19.5015238 C27.6632595,17.3030781 28.872679,16.9736742 28.872679,19.5002689 C28.872679,26.9555517 22.6398013,33 14.9519231,33 C7.26422968,33 1.03116711,26.9555517 1.03116711,19.5002689 C1.03116714,12.0428349 7.26422971,6 14.9519231,6 C17.3982132,6 19.6955095,6.61417009 21.6947257,7.68735435 L20.7986369,8.5565323 C19.0480519,7.67588122 17.0609437,7.17464959 14.9519231,7.17464959 C7.93248367,7.17464959 2.24215792,12.6926793 2.24215792,19.5015238 Z" id="Shape" fill-rule="nonzero" transform="translate(14.951923, 19.500000) rotate(3.000000) translate(-14.951923, -19.500000) "></path>
                <path d="M19.0292756,26 C18.9608615,26 18.8923008,25.9818999 18.8296244,25.9453764 C18.6907207,25.8643838 18.6033107,25.7058192 18.6020167,25.5325214 L18.5610219,20.0180732 C18.5605092,19.9480699 18.5741334,19.8788477 18.6008691,19.8153896 L25.7415555,2.88289243 C25.9841548,2.33517536 26.4709648,2 27.0155924,2 C27.2275493,2 27.4322303,2.05133754 27.6241416,2.15258507 L30.1219424,3.31974627 C30.8413167,3.70687867 31.1328216,4.63868451 30.7945597,5.40990567 L23.6505283,22.5979054 C23.6176153,22.6770395 23.5654868,22.7446187 23.4998804,22.7930742 L19.2670649,25.9202733 C19.1954278,25.9732 19.112486,26 19.0292756,26 Z" id="Combined-Shape" transform="translate(24.748011, 14.000000) rotate(22.000000) translate(-24.748011, -14.000000) "></path>
                <ellipse id="Oval-2" cx="13.920756" cy="24.5" rx="1.54675066" ry="1.5"></ellipse>
            </g>
        </g>
    </g>
</svg>