<?xml version="1.0" encoding="UTF-8"?>
<svg width="19px" height="14px" viewBox="0 0 19 14" version="1.1" xmlns="http://www.w3.org/2000/svg" xmlns:xlink="http://www.w3.org/1999/xlink">
    <!-- Generator: Sketch 47.1 (45422) - http://www.bohemiancoding.com/sketch -->
    <title>Email-Icons</title>
    <desc>Created with Sketch.</desc>
    <defs></defs>
    <g id="Violett-Web-(Light)" stroke="none" stroke-width="1" fill="none" fill-rule="evenodd">
        <g id="按任务验收" transform="translate(-1257.000000, -44.000000)" fill-rule="nonzero" fill="#6F737A">
            <g id="top-bar" transform="translate(-2.062334, -1.000000)">
                <g id="Email-Icons" transform="translate(1259.247347, 45.000000)">
                    <path d="M16.8211012,0 L1.73990686,0 C0.778991165,0 0,0.783475029 0,1.75 L0,12.25 C0,13.2164963 0.778991252,14 1.73990686,14 L16.821101,14 C17.7820231,14 18.561008,13.2164963 18.561008,12.25 L18.561008,1.75 C18.5610082,0.783475029 17.7820233,0 16.8211012,0 Z M17.9810392,11.9906505 L12.4948516,6.47266649 L17.9810392,2.95645006 L17.9810392,11.9906505 L17.9810392,11.9906505 Z M1.73990686,0.583333333 L16.821101,0.583333333 C17.460691,0.583333333 17.981039,1.10667086 17.981039,1.75 L17.981039,2.26520009 L9.99611357,7.38307509 C9.56397866,7.65995393 9.01205078,7.6514079 8.58980479,7.3625706 L0.579968915,1.88693738 L0.579968915,1.75 C0.579968915,1.10667086 1.10034607,0.583333333 1.73990686,0.583333333 Z M0.579968915,2.59151681 L6.14352462,6.39482092 L0.579968915,11.9906505 L0.579968915,2.59151681 Z M16.8211012,13.4166667 L1.73990686,13.4166667 C1.26218642,13.4166667 0.851423407,13.1243869 0.673894895,12.7085296 L6.62434824,6.72352893 L8.26415216,7.84452089 C8.57904671,8.05985848 8.94323807,8.16780376 9.30798031,8.16780376 C9.65459911,8.16780376 10.0017688,8.07038721 10.307354,7.87470848 L12.0015594,6.78883304 L17.887114,12.7085296 C17.7095847,13.1243869 17.2988283,13.4166667 16.8211012,13.4166667 Z" id="Mail"></path>
                </g>
            </g>
        </g>
    </g>
</svg>