<?xml version="1.0" encoding="UTF-8"?>
<svg width="29px" height="32px" viewBox="0 0 29 32" version="1.1" xmlns="http://www.w3.org/2000/svg" xmlns:xlink="http://www.w3.org/1999/xlink">
    <!-- Generator: Sketch 47.1 (45422) - http://www.bohemiancoding.com/sketch -->
    <title>Shape</title>
    <desc>Created with Sketch.</desc>
    <defs></defs>
    <g id="Symbols" stroke="none" stroke-width="1" fill="none" fill-rule="evenodd">
        <g id="我的" fill-rule="nonzero" fill="#359FFF">
            <path d="M24.930862,9.9519147 C24.930862,15.4471376 20.3818124,19.9039467 14.7697461,19.9081317 C14.6282476,19.9081317 14.5104454,19.9007396 14.3711847,19.8962418 L13.0265698,19.8211866 C7.18057739,19.8211866 1.79236712,25.3514926 1.53822135,31.9783322 L0,31.9999609 C0.207712205,25.7084644 3.90333553,20.4079783 9.74972749,18.5604232 C6.68623187,16.8448307 4.59744124,13.6537912 4.59744124,9.9519147 C4.59744124,4.45680916 9.15072666,0 14.7653105,0 C20.3796945,0 24.930862,4.45461892 24.930862,9.9519147 Z M23.2562172,21.450929 C23.0089445,21.2503645 22.7871664,21.117385 22.47364,21.1026008 C22.0109028,21.0808156 21.61378,21.4052075 21.6512226,21.9622353 C21.6707231,22.2517787 21.8386751,22.5325219 22.3579556,22.993296 L22.3622713,22.9891111 L22.3579556,22.993296 C25.1430498,25.1156494 26.9953969,28.3435712 27.2606515,32 L28.872679,32 C28.6051867,27.7269764 26.4745179,23.9518047 23.2562172,21.450929 L23.2562172,21.450929 L23.2562172,21.450929 Z" id="Shape"></path>
        </g>
    </g>
</svg>