<?xml version="1.0" encoding="UTF-8"?>
<svg width="5px" height="16px" viewBox="0 0 5 16" version="1.1" xmlns="http://www.w3.org/2000/svg" xmlns:xlink="http://www.w3.org/1999/xlink">
    <!-- Generator: Sketch 47.1 (45422) - http://www.bohemiancoding.com/sketch -->
    <title>Combined Shape</title>
    <desc>Created with Sketch.</desc>
    <defs></defs>
    <g id="Violett-Web-(Light)" stroke="none" stroke-width="1" fill="none" fill-rule="evenodd">
        <g id="我的重心-项目经理" transform="translate(-720.000000, -145.000000)" fill="#D8D8D8">
            <g id="Sales-Up-with-Progress-Bar" transform="translate(383.000000, 111.000000)">
                <g id="Header" transform="translate(31.000149, 30.000000)">
                    <g id="More-Icon" transform="translate(306.901472, 4.000000)">
                        <path d="M0,2 C0,0.8954305 0.896876075,0 1.99403328,0 L2.13931987,0 C3.24059405,0 4.13335316,0.887729645 4.13335316,2 C4.13335316,3.1045695 3.23647708,4 2.13931987,4 L1.99403328,4 C0.892759111,4 0,3.11227036 0,2 Z M0,8 C0,6.8954305 0.896876075,6 1.99403328,6 L2.13931987,6 C3.24059405,6 4.13335316,6.88772964 4.13335316,8 C4.13335316,9.1045695 3.23647708,10 2.13931987,10 L1.99403328,10 C0.892759111,10 0,9.11227036 0,8 Z M0,14 C0,12.8954305 0.896876075,12 1.99403328,12 L2.13931987,12 C3.24059405,12 4.13335316,12.8877296 4.13335316,14 C4.13335316,15.1045695 3.23647708,16 2.13931987,16 L1.99403328,16 C0.892759111,16 0,15.1122704 0,14 Z" id="Combined-Shape"></path>
                    </g>
                </g>
            </g>
        </g>
    </g>
</svg>