<?xml version="1.0" encoding="UTF-8"?>
<svg width="34px" height="27px" viewBox="0 0 34 27" version="1.1" xmlns="http://www.w3.org/2000/svg" xmlns:xlink="http://www.w3.org/1999/xlink">
    <!-- Generator: Sketch 47.1 (45422) - http://www.bohemiancoding.com/sketch -->
    <title>Active Icon</title>
    <desc>Created with Sketch.</desc>
    <defs></defs>
    <g id="Violett-Web-(Light)" stroke="none" stroke-width="1" fill="none" fill-rule="evenodd">
        <g id="按任务验收" transform="translate(-34.000000, -194.000000)" fill="#6F737A">
            <g id="menu" transform="translate(15.467507, 74.000000)">
                <g id="Overrides/Tab-Bar/Icons/Active/1" transform="translate(13.122016, 118.000000)">
                    <g id="我们" transform="translate(6.000000, 2.000000)">
                        <g id="关于我们" fill-rule="nonzero">
                            <path d="M5.1146286,8.30924843 C5.11399321,5.93769828 6.13663748,3.67895275 7.92488503,2.10214953 C9.71313258,0.525346308 12.0964589,-0.219153148 14.4743357,0.0562432104 C18.1106695,0.46328624 21.1474117,3.27935946 21.7606303,6.85448493 C22.3532454,10.1639649 20.8718566,13.5006857 18.0089905,15.3047814 C22.662114,16.912186 26.1684663,20.9244673 26.9860911,25.8380583 C27.034952,26.1262237 26.9537168,26.4211149 26.7638669,26.644753 C26.5740169,26.8683911 26.2946721,26.9982534 25.9997002,27 L25.8980212,27 C25.3980122,27 24.994441,26.6293001 24.9105821,26.1402254 C23.9944231,20.7354831 19.2375241,16.6162491 13.5005236,16.6162491 C7.76352316,16.6162491 3.00662421,20.7354831 2.08941696,26.1402254 C2.00660627,26.6293001 1.60303507,27 1.10302607,27 L1.00134707,27 C0.706191568,26.9985566 0.426557369,26.868824 0.236472129,26.6451465 C0.0463868891,26.4214689 -0.034981393,26.1264018 0.013907935,25.8380583 C0.832580939,20.9244674 4.33893332,16.9132244 8.99205681,15.3047814 C6.57705306,13.7831246 5.11451852,11.1444661 5.1146286,8.30924843 Z M7.21110238,8.30924843 C7.21139631,11.7499149 10.02718,14.5389717 13.5005237,14.5389717 C16.9738673,14.5389717 19.789651,11.7499149 19.7899449,8.30924843 C19.789651,4.86858198 16.9738673,2.07952513 13.5005237,2.07952513 C10.02718,2.07952513 7.21139631,4.86858198 7.21110238,8.30924843 L7.21110238,8.30924843 Z" id="Shape"></path>
                            <path d="M25.6757597,14.010883 C27.6447389,12.7100301 28.8371378,10.4554541 28.8373769,8.03292908 C28.8364269,4.5034288 26.3375943,1.51057599 22.9717185,1.00762752 C22.7260849,0.974086866 22.4784525,1.05217713 22.2923134,1.22187621 C22.1061744,1.39157529 21.9996311,1.63637963 22.000001,1.89352215 C22.000001,2.33175168 22.309092,2.70078707 22.7272739,2.7636908 C25.2522553,3.14051302 27.1271369,5.38526929 27.1282854,8.03292908 C27.1275584,10.6624233 25.2779901,12.8978296 22.7737386,13.295877 C22.3300981,13.3629444 22.0008299,13.7573415 22.000001,14.222659 L22.000001,14.2299978 C22.000001,14.7101631 22.3454556,15.125328 22.8060618,15.165167 C27.1070733,15.5415411 30.582832,18.9016503 31.2979837,23.2346709 C31.3697009,23.6708037 31.7131354,24 32.1393981,24 L32.148489,24 C32.4011111,23.9978372 32.6399945,23.8803094 32.8015332,23.6787099 C32.9630719,23.4771105 33.0308692,23.2119022 32.9868732,22.9537008 C32.3040446,18.7810847 29.4535387,15.3779914 25.6757597,14.010883" id="Shape"></path>
                        </g>
                    </g>
                </g>
            </g>
        </g>
    </g>
</svg>