<?xml version="1.0" encoding="UTF-8"?>
<svg width="22px" height="17px" viewBox="0 0 22 17" version="1.1" xmlns="http://www.w3.org/2000/svg" xmlns:xlink="http://www.w3.org/1999/xlink">
    <!-- Generator: Sketch 47.1 (45422) - http://www.bohemiancoding.com/sketch -->
    <title>任务维度</title>
    <desc>Created with Sketch.</desc>
    <defs></defs>
    <g id="Violett-Web-(Light)" stroke="none" stroke-width="1" fill="none" fill-rule="evenodd">
        <g id="我的重心-项目经理" transform="translate(-125.000000, -178.000000)" fill-rule="nonzero" fill="#6F737A">
            <g id="Menu-Icons" transform="translate(124.771220, 116.000000)">
                <g id="任务维度" transform="translate(1.031167, 62.000000)">
                    <path d="M16.974597,9.96 L11.2833478,9.96 C11.0057259,9.96 10.728104,9.72 10.728104,9.48 C10.728104,9.24 11.0057259,9 11.2833478,9 L16.974597,9 C17.2522189,9 17.5298408,9.24 17.5298408,9.48 C17.5298408,9.72 17.2522189,9.96 16.974597,9.96 Z M16.5581642,12 L10.8669149,12 C10.589293,12 10.3116711,11.76 10.3116711,11.52 C10.3116711,11.28 10.589293,11.04 10.8669149,11.04 L16.5581642,11.04 C16.8357861,11.04 17.113408,11.28 17.113408,11.52 C17.113408,11.76 16.8357861,12 16.5581642,12 Z" id="Shape"></path>
                    <path d="M17.8886246,16.8690476 L17.0839923,16.8690476 C16.8157816,16.8690476 16.5475709,16.6071429 16.5475709,16.3452381 C16.5475709,16.0833333 16.8157816,15.8214286 17.0839923,15.8214286 L17.8886246,15.8214286 C18.0227299,15.8214286 18.1568353,15.6904762 18.1568353,15.5595238 L19.6319944,7.17857143 L19.6319944,6.91666667 C19.6319944,6.91666667 19.497889,6.78571429 19.3637836,6.78571429 L2.73471761,6.78571429 C2.60061224,6.78571429 2.46650687,6.91666667 2.46650687,7.04761905 L0.991347786,15.5595238 L0.991347786,15.8214286 C0.991347786,15.8214286 1.12545316,15.952381 1.25955853,15.952381 L13.1949366,15.952381 C13.4631473,15.952381 13.7313581,16.2142857 13.7313581,16.4761905 C13.7313581,16.7380952 13.4631473,17 13.1949366,17 L1.25955853,17 C0.857242414,17 0.589031672,16.8690476 0.320820929,16.6071429 C0.0526101869,16.3452381 -0.0814951843,15.952381 0.0526101869,15.5595238 L1.52776927,7.04761905 C1.66187464,6.39285714 2.19829613,6 2.73471761,6 L19.3637836,6 C19.7660998,6 20.0343105,6.13095238 20.3025212,6.39285714 C20.570732,6.6547619 20.7048374,7.04761905 20.570732,7.44047619 L19.0955729,15.952381 C18.9614675,16.3452381 18.425046,16.8690476 17.8886246,16.8690476 Z" id="Shape"></path>
                    <path d="M0.526553417,16 C0.263276709,16 0,15.7377049 0,15.4754098 L0,1.18032787 C0,0.524590164 0.526553417,0 1.18474519,0 L8.16157797,0 C8.81976974,0 9.34632316,0.524590164 9.34632316,1.18032787 L9.34632316,2.2295082 L17.3762628,2.2295082 C18.0344545,2.2295082 18.561008,2.75409836 18.561008,3.40983607 L18.561008,5.90163934 C18.561008,6.16393443 18.2977312,6.42622951 18.0344545,6.42622951 C17.7711778,6.42622951 17.5079011,6.16393443 17.5079011,5.90163934 L17.5079011,3.54098361 C17.5079011,3.40983607 17.3762628,3.27868852 17.2446244,3.27868852 L8.55649303,3.27868852 L8.55649303,1.18032787 C8.55649303,1.04918033 8.42485468,0.918032787 8.29321632,0.918032787 L1.31638354,0.918032787 C1.18474519,0.918032787 1.05310683,1.04918033 1.05310683,1.18032787 L1.05310683,15.4754098 C1.05310683,15.7377049 0.789830126,16 0.526553417,16 Z" id="Shape"></path>
                </g>
            </g>
        </g>
    </g>
</svg>