<?xml version="1.0" encoding="UTF-8"?>
<svg width="20px" height="22px" viewBox="0 0 20 22" version="1.1" xmlns="http://www.w3.org/2000/svg" xmlns:xlink="http://www.w3.org/1999/xlink">
    <!-- Generator: Sketch 47.1 (45422) - http://www.bohemiancoding.com/sketch -->
    <title>Document-Icon</title>
    <desc>Created with Sketch.</desc>
    <defs></defs>
    <g id="Violett-Web-(Light)" stroke="none" stroke-width="1" fill="none" fill-rule="evenodd">
        <g id="可查看的项目情况" transform="translate(-126.000000, -116.000000)" fill-rule="nonzero" fill="#FF9E22">
            <g id="Menu-Icons" transform="translate(124.771220, 116.000000)">
                <g id="Document-Icon" transform="translate(1.031167, 0.000000)">
                    <path d="M17.8710278,3.34379761 L16.5003801,3.34379761 C16.471816,3.34379761 16.4464286,3.35331029 16.4198673,3.35954067 L16.4198673,1.96373085 C16.4198673,1.03596005 15.6238603,0.281296321 14.6452402,0.281296321 L2.75570279,0.281296321 C1.77708352,0.281296321 0.981076576,1.03596005 0.981076576,1.96373085 L0.981076576,17.6543387 C0.981076576,18.5821089 1.77708352,19.3367734 2.75570314,19.3367734 L4.84077461,19.3367734 L4.84077461,20.0964275 C4.84077461,20.9909708 5.60628256,21.7187037 6.5475647,21.7187037 L17.8710284,21.7187037 C18.8123106,21.7187037 19.5778178,20.9909708 19.5778178,20.0964276 L19.5778178,4.96607331 C19.5778172,4.07153053 18.8123099,3.34379761 17.8710278,3.34379761 Z M1.68282404,17.6543388 L1.68282404,1.96373085 C1.68282404,1.41144967 2.16427597,0.961867046 2.75570314,0.961867046 L14.6452406,0.961867046 C15.2366687,0.961867046 15.71812,1.41144967 15.71812,1.96373085 L15.71812,17.6543387 C15.71812,18.2066199 15.2366687,18.6562361 14.6452406,18.6562361 L2.75570314,18.6562361 C2.16427597,18.6562363 1.68282404,18.20662 1.68282404,17.6543388 Z M17.8710278,21.0381664 L6.54756407,21.0381664 C5.99347453,21.0381664 5.54252159,20.6158165 5.54252159,20.0964276 L5.54252159,19.3367735 L14.6452396,19.3367735 C15.6238597,19.3367735 16.4198666,18.582109 16.4198666,17.6543388 L16.4198666,4.00859144 C16.446428,4.01482186 16.4718154,4.0243345 16.5003795,4.0243345 L17.8710271,4.0243345 C18.425116,4.0243345 18.8760347,4.44668509 18.8760347,4.96607328 L18.8760347,20.0964276 C18.8760353,20.6158165 18.4251167,21.0381664 17.8710278,21.0381664 Z" id="Shape"></path>
                    <path d="M12.5601697,4.7049053 L4.84077461,4.7049053 C4.64683278,4.7049053 4.48988335,4.85707736 4.48988335,5.04515731 C4.48988335,5.23327046 4.64683278,5.38544256 4.84077461,5.38544256 L12.5601697,5.38544256 C12.7541115,5.38544256 12.9110607,5.2332705 12.9110607,5.04515731 C12.9110607,4.85707736 12.7541116,4.7049053 12.5601697,4.7049053 Z" id="Shape"></path>
                    <path d="M12.5601697,7.42712134 L4.84077461,7.42712134 C4.64683278,7.42712134 4.48988335,7.5792934 4.48988335,7.76737272 C4.48988335,7.95545264 4.64683278,8.1076586 4.84077461,8.1076586 L12.5601697,8.1076586 C12.7541115,8.1076586 12.9110607,7.95545267 12.9110607,7.76737272 C12.9110607,7.57929344 12.7541116,7.42712134 12.5601697,7.42712134 Z" id="Shape"></path>
                    <path d="M12.5601697,10.1493035 L4.84077461,10.1493035 C4.64683278,10.1493035 4.48988335,10.3015088 4.48988335,10.4895888 C4.48988335,10.6776687 4.64683278,10.829874 4.84077461,10.829874 L12.5601697,10.829874 C12.7541115,10.829874 12.9110607,10.6776687 12.9110607,10.4895888 C12.9110607,10.3015088 12.7541116,10.1493035 12.5601697,10.1493035 Z" id="Shape"></path>
                    <path d="M9.05136246,12.8715189 L4.84077461,12.8715189 C4.64683278,12.8715189 4.48988335,13.0237242 4.48988335,13.2118042 C4.48988335,13.3998841 4.64683278,13.5520894 4.84077461,13.5520894 L9.05136242,13.5520894 C9.24530494,13.5520894 9.40221911,13.3998841 9.40221911,13.2118042 C9.40221911,13.0237242 9.24530494,12.8715189 9.05136246,12.8715189 Z" id="Shape"></path>
                </g>
            </g>
        </g>
    </g>
</svg>