<?xml version="1.0" encoding="UTF-8"?>
<svg width="20px" height="18px" viewBox="0 0 20 18" version="1.1" xmlns="http://www.w3.org/2000/svg" xmlns:xlink="http://www.w3.org/1999/xlink">
    <!-- Generator: Sketch 47.1 (45422) - http://www.bohemiancoding.com/sketch -->
    <title>search icon</title>
    <desc>Created with Sketch.</desc>
    <defs></defs>
    <g id="Violett-Web-(Light)" stroke="none" stroke-width="1" fill="none" fill-rule="evenodd">
        <g id="我的重心-项目经理" transform="translate(-123.000000, -42.000000)" fill="#AAAAAA">
            <g id="top-bar" transform="translate(-2.062334, -1.000000)">
                <g id="search-bar" transform="translate(119.615385, 41.000000)">
                    <path d="M12.902485,15.0773973 L7.71552228,20.005106 L6.18758011,18.554118 L11.315943,13.682296 C10.2645728,12.4502422 9.63475113,10.8809404 9.63475113,9.172064 C9.63475113,5.210942 13.0180929,1.999998 17.1916387,1.999998 C21.3651638,1.999998 24.7479694,5.210942 24.7479694,9.172064 C24.7479694,13.13279 21.3651638,16.343734 17.1916387,16.343734 C15.5987612,16.343734 14.1209887,15.8760128 12.902485,15.0773973 Z M17.2075186,4.06241 C14.2178352,4.06241 11.7939738,6.357164 11.7939738,9.187464 C11.7939738,12.017764 14.2178352,14.312518 17.2075186,14.312518 C20.1972227,14.312518 22.6213316,12.017764 22.6213316,9.187464 C22.6213316,6.357164 20.1972227,4.06241 17.2075186,4.06241 Z" id="search-icon"></path>
                </g>
            </g>
        </g>
    </g>
</svg>