<?xml version="1.0" encoding="UTF-8"?>
<svg width="27px" height="26px" viewBox="0 0 27 26" version="1.1" xmlns="http://www.w3.org/2000/svg" xmlns:xlink="http://www.w3.org/1999/xlink">
    <!-- Generator: Sketch 47.1 (45422) - http://www.bohemiancoding.com/sketch -->
    <title>Settings-Icon</title>
    <desc>Created with Sketch.</desc>
    <defs></defs>
    <g id="Violett-Web-(Light)" stroke="none" stroke-width="1" fill="none" fill-rule="evenodd">
        <g id="我的重心-项目经理" transform="translate(-38.000000, -834.000000)" fill-rule="nonzero" fill="#6F737A">
            <g id="menu" transform="translate(15.467507, 74.000000)">
                <g id="Settings-Icon" transform="translate(22.685676, 760.000000)">
                    <path d="M26.7518541,11.7930511 C26.690065,11.1860324 26.2122535,10.698085 25.5912593,10.6064354 C24.94404,10.5092198 24.026875,10.3731257 23.575247,10.3060948 C23.3412424,9.47494783 23.0008767,8.67812944 22.5602655,7.93066966 L23.7683231,6.33881974 C24.1414051,5.84685083 24.1242312,5.17284162 23.7229138,4.69578216 C23.1882143,4.07588533 22.59667,3.50360095 21.9621854,2.99339162 C21.4753691,2.60716962 20.7827403,2.59091966 20.2758992,2.95093837 C19.7481543,3.32586658 19.0007311,3.85866329 18.6325502,4.12130416 C17.8614172,3.69421353 17.0399736,3.36413541 16.182923,3.13700095 L15.8761125,1.18350724 C15.7816055,0.579291619 15.2775705,0.114947869 14.6459367,0.0534415781 C13.8171199,-0.0185459219 12.9817679,-0.0177740469 12.1594862,0.0564072031 C11.5339672,0.117710328 11.0311899,0.581079078 10.9371023,1.18253224 C10.8372764,1.80994462 10.6969821,2.69902291 10.6278206,3.13700095 C9.77076827,3.36393237 8.94890523,3.69421353 8.17777298,4.12130416 L6.53647828,2.95036962 C6.02921805,2.58775103 5.33336418,2.60481345 4.84286037,2.99420404 C4.20464832,3.51091329 3.61473721,4.08461954 3.08661522,4.70151029 C2.68936136,5.17361333 2.67176694,5.84628204 3.04325791,6.33662608 C3.4294107,6.84862283 3.97923222,7.57341329 4.25005847,7.93066962 C3.80948927,8.6781294 3.46912356,9.47494775 3.23511931,10.3060948 L1.21990307,10.6038357 C0.597274662,10.6960944 0.118626225,11.1848539 0.0552030027,11.7966263 C-0.0192375954,12.6003913 -0.0183997721,13.4104946 0.0585124046,14.207516 C0.121516715,14.8141294 0.598908418,15.3017103 1.21910718,15.3933608 C1.86586478,15.490942 2.78307193,15.6266294 3.23511944,15.693661 C3.46912365,16.5252133 3.80948935,17.3218286 4.2500586,18.0692884 L3.04200122,19.6609756 C2.66891864,20.1529035 2.68609397,20.8269545 3.0874112,21.3038098 C3.6212721,21.9230984 4.2128595,22.4955854 4.84818072,23.006567 C5.33537499,23.3917734 6.02838039,23.4092418 6.53442573,23.0486141 C7.06217062,22.6740915 7.80959142,22.1408884 8.17777307,21.8782882 C8.94890532,22.3055415 9.77076835,22.6356197 10.6274427,22.8625515 L10.9342532,24.8168579 C11.0291381,25.4206663 11.5331715,25.8848479 12.1639695,25.9463129 C12.5730773,25.9820232 12.9834012,25.9998976 13.3928877,25.9998976 C13.813852,25.9998976 14.2339781,25.9808454 14.6500421,25.9431453 C15.2759374,25.8832641 15.7791335,25.4198542 15.8732218,24.8176296 C15.9738444,24.1904189 16.1137607,23.3009349 16.1829231,22.8625515 C17.0395551,22.6356197 17.8614173,22.3055415 18.6321732,21.8782882 L20.2738459,23.0497918 C20.781526,23.412411 21.4765836,23.3945753 21.9678824,23.0057952 C22.606514,22.4880289 23.1968022,21.9143641 23.7233326,21.2986508 C24.1213836,20.8269545 24.1393534,20.1540828 23.7671087,19.6629251 C23.3809134,19.1511732 22.8310919,18.426341 22.5602657,18.0692884 C23.0008768,17.3218286 23.3412425,16.5252133 23.5752472,15.693661 L25.5900018,15.3961223 C26.2126723,15.3044734 26.6916983,14.8157132 26.7551221,14.2035766 C26.8295626,13.3989973 26.8287668,12.5888544 26.7518541,11.7930511 Z M25.9209838,14.1265912 C25.8964366,14.3650204 25.7086403,14.557054 25.4639945,14.5931285 L23.1759399,14.930763 C23.0082084,14.9553416 22.8723974,15.0759579 22.8318876,15.2358566 C22.5962498,16.1709225 22.2157945,17.0615857 21.7011614,17.8828199 C21.6128132,18.0236663 21.6209823,18.2021725 21.7216465,18.3346922 C21.7216465,18.3346922 22.5602655,19.4399763 23.0916986,20.1433976 C23.2373103,20.3362046 23.2307776,20.5996168 23.0769521,20.7816982 C22.5843973,21.3577604 22.0305104,21.8961225 21.4340218,22.379358 C21.2425789,22.5301164 20.9701195,22.5380385 20.770466,22.3952008 L18.9062258,21.0649763 C18.769619,20.967395 18.5855062,20.9590668 18.44027,21.0451507 C17.5930647,21.544229 16.6746421,21.913185 15.71081,22.1417006 C15.5459678,22.180986 15.4215922,22.3126921 15.396206,22.4753539 C15.396206,22.4753539 15.1834855,23.8313766 15.0452438,24.6942503 C15.0080019,24.9303224 14.8116163,25.1112259 14.5698613,25.1342191 C13.802792,25.2040542 13.0185903,25.205232 12.2433519,25.1373883 C11.9974932,25.1135831 11.7998923,24.9310941 11.7622334,24.6946579 L11.414118,22.4749479 C11.3887303,22.3126921 11.2643978,22.180986 11.0995148,22.1417006 C10.135682,21.913185 9.21726011,21.544229 8.37005326,21.0451507 C8.30294357,21.0054608 8.22766557,20.9860413 8.15242916,20.9860413 C8.064876,20.9860413 7.9777423,21.0126097 7.9040983,21.0649763 C7.9040983,21.0649763 6.7643665,21.8782883 6.03902075,22.393617 C5.84104311,22.5336513 5.56900201,22.5284923 5.38078468,22.379358 C4.78680983,21.9016891 4.2316685,21.3645048 3.73337277,20.7860855 C3.57711907,20.6004289 3.57016488,20.3357986 3.71703539,20.1425856 L5.08871957,18.3346922 C5.18934215,18.2021725 5.19751084,18.0236664 5.10916267,17.88282 C4.59452955,17.0615858 4.21407392,16.1709225 3.97843612,15.2358566 C3.93792749,15.075958 3.80211647,14.9553417 3.63438416,14.9307631 C3.63438416,14.9307631 2.23609892,14.7244705 1.34633077,14.5903669 C1.103739,14.5542507 0.916778694,14.3634351 0.892649384,14.1293544 C0.820638515,13.3843323 0.819800692,12.6239944 0.889381915,11.87357 C0.913930095,11.6351416 1.1021052,11.4431072 1.34633073,11.407032 L3.63480278,11.0689914 C3.80211638,11.0440076 3.93792741,10.9235951 3.97843604,10.7637352 C4.21407384,9.82903504 4.59452951,8.93857632 5.10916258,8.11673228 C5.1975108,7.9761292 5.1893421,7.79778504 5.08871949,7.66506386 C5.08871949,7.66506386 4.25005843,6.559982 3.71866889,5.8559915 C3.57301365,5.66379474 3.57996746,5.40013841 3.73337269,5.21785408 C4.2267669,4.64142616 4.78065178,4.10306362 5.37630254,3.62064174 C5.56736792,3.46906974 5.84020524,3.461554 6.0398584,3.60475712 L7.90409822,4.93457599 C8.04112371,5.03240095 8.22481705,5.04011974 8.37005322,4.95464487 C9.21726007,4.45552591 10.1356819,4.08656995 11.0995148,3.85768858 C11.2643978,3.81860733 11.3887302,3.68706353 11.414118,3.52440099 C11.414118,3.52440099 11.627636,2.16841974 11.7651225,1.3055042 C11.8019449,1.07004174 11.9987076,0.88877295 12.2404619,0.865169825 C13.009583,0.795904241 13.7937855,0.795335491 14.5670136,0.862366781 C14.8128723,0.886172991 15.0108495,1.06845737 15.0480915,1.30570741 L15.396206,3.52423882 C15.4215921,3.6869014 15.5459677,3.81860749 15.71081,3.85768874 C16.674642,4.08657011 17.5930647,4.45552608 18.44027,4.95464503 C18.5859264,5.04032291 18.7696189,5.03240112 18.9062257,4.93457616 C18.9062257,4.93457616 20.0459999,4.1213044 20.7708846,3.60634186 C20.9701195,3.46472295 21.241366,3.47106053 21.4295394,3.62043849 C22.0227185,4.09749795 22.5778598,4.63468233 23.0765319,5.21310124 C23.2332482,5.39916382 23.2402012,5.66399791 23.0933303,5.85716983 L21.7216465,7.66506398 C21.6209824,7.79778517 21.6128133,7.97612936 21.7011615,8.11673241 C22.2157946,8.93857644 22.5962498,9.82903517 22.8318876,10.7637353 C22.8723975,10.9235952 23.0082085,11.0440077 23.1755628,11.0689915 C23.17594,11.0689915 24.5742276,11.2758947 25.4639945,11.4095915 C25.7074227,11.445504 25.8939645,11.6359135 25.9177175,11.8708078 C25.9896859,12.6152601 25.9905233,13.3755981 25.9209838,14.1265912 Z" id="Shape"></path>
                    <path d="M13.405162,8.93739771 C11.0954087,8.93739771 9.21604565,10.7597539 9.21604565,12.9998977 C9.21604565,15.2397975 11.0954087,17.0623977 13.405162,17.0623977 C15.7149153,17.0623977 17.5942776,15.2397975 17.5942776,12.9998977 C17.5942776,10.7597539 15.7149153,8.93739771 13.405162,8.93739771 Z M13.405162,16.2498977 C11.5573007,16.2498977 10.0538689,14.7919065 10.0538689,12.9998977 C10.0538689,11.2078479 11.5573007,9.74989771 13.405162,9.74989771 C15.2530233,9.74989771 16.7564543,11.2078479 16.7564543,12.9998977 C16.7564543,14.7919065 15.2530233,16.2498977 13.405162,16.2498977 Z" id="Shape"></path>
                    <path d="M10.8880056,6.85317283 C10.8577598,6.63079178 10.6527865,6.47312591 10.4179868,6.50347291 C10.3864843,6.50741309 7.24707675,6.94401049 6.70831591,10.0894818 C6.67027861,10.3108478 6.82448007,10.5201477 7.05278695,10.5568319 C7.0760781,10.5606101 7.09899295,10.5623977 7.12190695,10.5623977 C7.32319291,10.5623977 7.50072825,10.4215513 7.53465984,10.2227725 C7.97036987,7.68013561 10.4245219,7.32271654 10.5288304,7.3088225 C10.7575143,7.27884162 10.9182929,7.07514787 10.8880056,6.85317283 Z" id="Shape"></path>
                </g>
            </g>
        </g>
    </g>
</svg>