<?xml version="1.0" encoding="UTF-8"?>
<svg width="22px" height="17px" viewBox="0 0 22 17" version="1.1" xmlns="http://www.w3.org/2000/svg" xmlns:xlink="http://www.w3.org/1999/xlink">
    <!-- Generator: Sketch 47.1 (45422) - http://www.bohemiancoding.com/sketch -->
    <title>Statistics-Icon</title>
    <desc>Created with Sketch.</desc>
    <defs></defs>
    <g id="Violett-Web-(Light)" stroke="none" stroke-width="1" fill="none" fill-rule="evenodd">
        <g id="可查看的项目情况" transform="translate(-125.000000, -239.000000)" fill-rule="nonzero" fill="#FF9E22">
            <g id="Menu-Icons" transform="translate(124.771220, 116.000000)">
                <g id="Statistics-Icon" transform="translate(1.031167, 123.000000)">
                    <path d="M19.3343831,0 L1.28895863,0 C0.577099087,0 0,0.563770402 0,1.25925926 L0,2.83333333 L0,3.46296296 L0,15.7407407 C0,16.4361978 0.577099087,17 1.28895883,17 L19.3343833,17 C20.0462796,17 20.6233422,16.4361978 20.6233422,15.7407407 L20.6233422,3.46296296 L20.6233422,2.83333333 L20.6233422,1.25925926 C20.623342,0.563770402 20.0462794,0 19.3343831,0 Z M19.9788625,15.7407407 C19.9788625,16.087918 19.6897486,16.3703704 19.3343831,16.3703704 L1.28895863,16.3703704 C0.933597306,16.3703704 0.644479252,16.087918 0.644479252,15.7407407 L0.644479252,3.46296296 L19.9788626,3.46296296 L19.9788626,15.7407407 L19.9788625,15.7407407 Z M19.9788625,2.83333333 L0.644479187,2.83333333 L0.644479187,1.25925926 C0.644479187,0.912081513 0.933597242,0.62962963 1.28895857,0.62962963 L19.334383,0.62962963 C19.6897485,0.62962963 19.9788625,0.912081513 19.9788625,1.25925926 L19.9788625,2.83333333 L19.9788625,2.83333333 Z" id="Shape"></path>
                    <path d="M1.54675066,1 C1.26247262,1 1.03116711,1.22428566 1.03116711,1.5 C1.03116711,1.77568571 1.26247262,2 1.54675066,2 C1.83105822,2 2.06233422,1.77568571 2.06233422,1.5 C2.06233422,1.22428566 1.8310582,1 1.54675066,1 Z M1.54675066,1.71428571 C1.42471946,1.71428571 1.32578628,1.6183428 1.32578628,1.5 C1.32578628,1.3816572 1.42471946,1.28571429 1.54675066,1.28571429 C1.66878623,1.28571429 1.76771504,1.3816572 1.76771504,1.5 C1.76771504,1.6183428 1.66878623,1.71428571 1.54675066,1.71428571 Z" id="Shape"></path>
                    <path d="M4.64025199,1 C4.35597395,1 4.12466844,1.22428566 4.12466844,1.5 C4.12466844,1.77568571 4.35597395,2 4.64025199,2 C4.92455955,2 5.15583554,1.77568571 5.15583554,1.5 C5.15583554,1.22428566 4.92455955,1 4.64025199,1 Z M4.64025199,1.71428571 C4.51822079,1.71428571 4.41928761,1.6183428 4.41928761,1.5 C4.41928761,1.3816572 4.51822079,1.28571429 4.64025199,1.28571429 C4.7622877,1.28571429 4.86121637,1.3816572 4.86121637,1.5 C4.86121637,1.6183428 4.7622877,1.71428571 4.64025199,1.71428571 Z" id="Shape"></path>
                    <path d="M3.60908488,1 C3.32480684,1 3.09350133,1.22428566 3.09350133,1.5 C3.09350133,1.77568571 3.32480684,2 3.60908488,2 C3.89339215,2 4.12466844,1.77568571 4.12466844,1.5 C4.12466844,1.22428566 3.89339215,1 3.60908488,1 Z M3.60908488,1.71428571 C3.48705338,1.71428571 3.3881205,1.6183428 3.3881205,1.5 C3.3881205,1.3816572 3.48705338,1.28571429 3.60908488,1.28571429 C3.7311203,1.28571429 3.83004926,1.3816572 3.83004926,1.5 C3.83004926,1.6183428 3.7311203,1.71428571 3.60908488,1.71428571 Z" id="Shape"></path>
                    <path d="M5.29518215,11.23393 C5.57807854,11.23393 5.8340532,11.1377486 6.03641856,10.9839633 L7.84222108,12.451865 C7.76643846,12.5945668 7.72011944,12.7528468 7.72011944,12.9224262 C7.72011944,13.5175239 8.2441751,14 8.89063349,14 C9.53709188,14 10.0611475,13.5175239 10.0611475,12.9224262 C10.0611475,12.617719 9.92255864,12.3438309 9.70173749,12.1478354 L10.7862647,9.98437495 C10.8497734,9.99419697 10.9139836,10.002417 10.9805361,10.002417 C11.6269938,10.002417 12.1510501,9.51997145 12.1510501,8.92484322 C12.1510501,8.90483157 12.1458336,8.88617406 12.1446624,8.86640784 L14.5848833,7.90361128 C14.787516,8.05835081 15.0442982,8.15514764 15.3281597,8.15514764 C15.9746174,8.15514764 16.4986737,7.67270263 16.4986737,7.07757382 C16.4986737,6.48244501 15.9746174,6 15.3281597,6 C14.6817019,6 14.1576456,6.48244501 14.1576456,7.07757382 C14.1576456,7.18388439 14.1795504,7.28452932 14.2106866,7.38154228 L11.9184857,8.28596513 C11.7052183,8.02115912 11.3661368,7.84726941 10.9805361,7.84726941 C10.3340777,7.84726941 9.81002204,8.329715 9.81002204,8.92484322 C9.81002204,9.23666178 9.95606902,9.51519958 10.1860246,9.71196432 L9.10681088,11.8648958 C9.0365797,11.8527965 8.96467666,11.8448524 8.89063349,11.8448524 C8.67251632,11.8448524 8.47085391,11.90335 8.29604556,11.9989771 L6.4627581,10.508723 C6.44579752,10.4949607 6.42526353,10.4888652 6.40643461,10.4787966 C6.44155053,10.3763658 6.46569619,10.269471 6.46569619,10.1563562 C6.46569619,9.56122793 5.94164053,9.07878234 5.29518215,9.07878234 C4.64872376,9.07878234 4.12466844,9.56122793 4.12466844,10.1563562 C4.12466844,10.7514844 4.64872409,11.23393 5.29518215,11.23393 Z M15.3281597,6.61575647 C15.6047685,6.61575647 15.8298086,6.82292749 15.8298086,7.07757382 C15.8298086,7.33222015 15.6047685,7.53939117 15.3281597,7.53939117 C15.0515509,7.53939117 14.8265108,7.33222015 14.8265108,7.07757382 C14.8265108,6.82292749 15.0515509,6.61575647 15.3281597,6.61575647 Z M10.9805361,8.46302587 C11.2571449,8.46302587 11.482185,8.67019751 11.482185,8.92484322 C11.482185,9.17948894 11.2571449,9.38666058 10.9805361,9.38666058 C10.7039273,9.38666058 10.4788872,9.17948894 10.4788872,8.92484322 C10.4788872,8.67019751 10.7039273,8.46302587 10.9805361,8.46302587 Z M8.89063352,12.4606088 C9.16724298,12.4606088 9.3922824,12.6677805 9.3922824,12.9224262 C9.3922824,13.1770414 9.16724298,13.3842435 8.89063352,13.3842435 C8.61402407,13.3842435 8.38898465,13.1770414 8.38898465,12.9224262 C8.38898465,12.6677805 8.61402407,12.4606088 8.89063352,12.4606088 Z M5.29518215,9.69453881 C5.57179161,9.69453881 5.79683102,9.90171044 5.79683102,10.1563562 C5.79683102,10.4110019 5.57179161,10.6181735 5.29518215,10.6181735 C5.01857302,10.6181735 4.79353327,10.4110019 4.79353327,10.1563562 C4.79353327,9.90171044 5.01857302,9.69453881 5.29518215,9.69453881 Z" id="Shape"></path>
                </g>
            </g>
        </g>
    </g>
</svg>