<?xml version="1.0" encoding="UTF-8"?>
<svg width="16px" height="16px" viewBox="0 0 16 16" version="1.1" xmlns="http://www.w3.org/2000/svg" xmlns:xlink="http://www.w3.org/1999/xlink">
    <!-- Generator: Sketch 47.1 (45422) - http://www.bohemiancoding.com/sketch -->
    <title>时间</title>
    <desc>Created with Sketch.</desc>
    <defs></defs>
    <g id="Violett-Web-(Light)" stroke="none" stroke-width="1" fill="none" fill-rule="evenodd">
        <g id="项目管理" transform="translate(-821.000000, -45.000000)" fill-rule="nonzero" fill="#FFFFFF">
            <g id="项目概览" transform="translate(811.000000, 36.000000)">
                <g id="时间" transform="translate(10.000000, 9.000000)">
                    <path d="M15.6639857,7.6639857 C15.4781055,7.6639857 15.3279714,7.81411975 15.3279714,8 C15.3279714,12.0411081 12.0411081,15.3279714 8,15.3279714 C3.95889187,15.3279714 0.672028597,12.0411081 0.672028597,8 C0.672028597,3.95889187 3.95889187,0.672028597 8,0.672028597 C10.8328865,0.672028597 13.4387846,2.33065237 14.639857,4.89722967 C14.7077748,5.04200179 14.8668454,5.11885612 15.0205541,5.08132261 C15.17605,5.04557641 15.2832887,4.90437891 15.279714,4.74530831 L15.2064343,2.03217158 C15.2010724,1.84629133 15.0473637,1.69258266 14.8614835,1.70509383 C14.6756032,1.71045576 14.5290438,1.86416443 14.5344057,2.05004468 L14.5719392,3.44057194 C13.0938338,1.31724754 10.6362824,0 8,0 C3.58891868,0 0,3.58891868 0,8 C0,12.4110813 3.58891868,16 8,16 C12.4110813,16 16,12.4110813 16,8 C16,7.81411975 15.8480786,7.6639857 15.6639857,7.6639857 Z" id="Shape"></path>
                    <path d="M8.35261019,3 C8.15754923,3 8,3.15754923 8,3.35261019 L8,8.64738981 C8,8.84245077 8.15754923,9 8.35261019,9 L13.6473898,9 C13.8424508,9 14,8.84245077 14,8.64738981 C14,8.45232885 13.8424508,8.29477962 13.6473898,8.29477962 L8.70522038,8.29477962 L8.70522038,3.35261019 C8.70522038,3.15754923 8.54767115,3 8.35261019,3 Z" id="Shape"></path>
                </g>
            </g>
        </g>
    </g>
</svg>