<?xml version="1.0" encoding="UTF-8"?>
<svg width="12px" height="12px" viewBox="0 0 12 12" version="1.1" xmlns="http://www.w3.org/2000/svg" xmlns:xlink="http://www.w3.org/1999/xlink">
    <!-- Generator: Sketch 47.1 (45422) - http://www.bohemiancoding.com/sketch -->
    <title>时间-5</title>
    <desc>Created with Sketch.</desc>
    <defs></defs>
    <g id="Violett-Web-(Light)" stroke="none" stroke-width="1" fill="none" fill-rule="evenodd">
        <g id="我的急办" transform="translate(-121.000000, -318.000000)" fill="#B6BFC4">
            <g id="my-meetings" transform="translate(120.000000, 107.000000)">
                <g id="content1">
                    <g id="3" transform="translate(0.000000, 181.000000)">
                        <path d="M11.2455503,31.7565754 C10.1112533,30.6245628 8.60480466,30 7.00120474,30 C5.39812737,30 3.89117105,30.6245628 2.75803868,31.7571577 C1.6242643,32.8902901 1.00000011,34.3966641 1.00000011,35.9997415 C0.999701502,37.6028188 1.62368202,39.1097304 2.75715779,40.2435047 C3.89029017,41.3760399 5.39726142,41.9994979 7.00004018,41.9994979 C8.60369982,41.9994979 10.1112533,41.3748753 11.2455503,40.2423252 C13.5845254,37.9027678 13.5851077,34.0967151 11.2455503,31.7565754 Z M10.6924885,39.6892187 C9.7058071,40.6753029 8.39451189,41.218451 7.00004018,41.218451 C5.60644935,41.218451 4.29545274,40.6753029 3.30993588,39.6903832 C2.32447874,38.7054487 1.78191296,37.3942132 1.78221156,35.9997415 C1.78221156,34.605867 2.3250013,33.295154 3.31080184,32.3096372 C4.2966173,31.3247026 5.60703163,30.7821965 7.00120474,30.7821965 C8.39567645,30.7821965 9.70638938,31.3247026 10.6924885,32.3096372 C12.726737,34.3451099 12.726737,37.6555525 10.6924885,39.6892187 Z M9.59447213,37.4703725 L7.52033001,36.2704122 L7.52033001,32.9998782 C7.52033001,32.7238923 7.29619689,32.5000578 7.01998701,32.5000578 C6.74401601,32.5000578 6.51988289,32.7238923 6.51988289,32.9998782 L6.51988289,36.5000845 C6.51988289,36.6852496 6.75042109,36.8410917 6.90042545,36.9266421 C6.94200624,36.9899315 7.05596894,37.0461439 7.12543946,37.0860376 L9.18842867,38.3363278 C9.42743233,38.4740296 9.68702483,38.3920326 9.82471173,38.1529692 C9.96241355,37.9139058 9.83410286,37.6086566 9.59447213,37.4703725 Z" id="时间-5"></path>
                    </g>
                </g>
            </g>
        </g>
    </g>
</svg>